<?xml version="1.0" encoding="UTF-8"?>
<svg xmlns="http://www.w3.org/2000/svg" width="120" height="120" viewBox="0 0 120 120">
  <defs>
    <radialGradient id="p" cx="35%" cy="30%" r="80%">
      <stop offset="0" stop-color="#8a5b2e"/>
      <stop offset="1" stop-color="#4b2c11"/>
    </radialGradient>
    <filter id="shadow" x="-40%" y="-40%" width="180%" height="180%">
      <feDropShadow dx="0" dy="4" stdDeviation="3" flood-color="#000" flood-opacity="0.35"/>
    </filter>
  </defs>
  <g filter="url(#shadow)" stroke="#241307" stroke-width="6" stroke-linejoin="round">
    <path fill="url(#p)" d="M62 20c12 0 18 12 10 22 16 6 22 24 8 34 14 8 16 28-2 34-20 8-56 0-62-20-6-20 6-32 20-38-6-10-2-22 10-26-6-10 2-26 16-26z"/>
    <path fill="none" stroke="#b27c43" stroke-width="6" opacity="0.45" d="M42 52c10 6 28 6 40-2"/>
    <path fill="none" stroke="#b27c43" stroke-width="6" opacity="0.45" d="M32 78c14 10 40 10 56-4"/>
    <!-- stink lines (cartoon, not gross) -->
    <path fill="none" stroke="#7cffc7" stroke-width="5" opacity="0.7" stroke-linecap="round"
          d="M92 20c10 10 8 22-2 30"/>
    <path fill="none" stroke="#7cffc7" stroke-width="5" opacity="0.7" stroke-linecap="round"
          d="M20 26c-8 10-6 20 2 28"/>
  </g>
</svg>
