<?xml version="1.0" encoding="UTF-8"?>
<svg xmlns="http://www.w3.org/2000/svg" width="240" height="140" viewBox="0 0 240 140">
  <defs>
    <radialGradient id="b" cx="35%" cy="35%" r="80%">
      <stop offset="0" stop-color="#9a9492"/>
      <stop offset="1" stop-color="#5e5a59"/>
    </radialGradient>
    <filter id="shadow" x="-40%" y="-40%" width="180%" height="180%">
      <feDropShadow dx="0" dy="4" stdDeviation="3" flood-color="#000" flood-opacity="0.35"/>
    </filter>
  </defs>
  <g filter="url(#shadow)" stroke="#222" stroke-width="6" stroke-linejoin="round" stroke-linecap="round">
    <rect x="40" y="40" width="140" height="70" rx="30" fill="url(#b)"/>
    <circle cx="180" cy="70" r="28" fill="url(#b)"/>
    <circle cx="92" cy="62" r="7" fill="#111"/>
    <path d="M172 72c18 10 30 10 44 0" fill="none" stroke="#111" stroke-width="6"/>
    <!-- tusks -->
    <path d="M196 86c10 2 18-4 18-14" fill="none" stroke="#fff" stroke-width="6"/>
    <path d="M186 86c-10 2-18-4-18-14" fill="none" stroke="#fff" stroke-width="6"/>
    <!-- legs -->
    <path d="M78 106c-8 20-26 22-40 12" fill="none" stroke="#2a2626" stroke-width="12"/>
    <path d="M122 110c-8 20-26 22-40 12" fill="none" stroke="#2a2626" stroke-width="12"/>
    <path d="M168 110c-8 20-26 22-40 12" fill="none" stroke="#2a2626" stroke-width="12"/>
  </g>
</svg>
