<?xml version="1.0" encoding="UTF-8"?>
<svg xmlns="http://www.w3.org/2000/svg" width="220" height="160" viewBox="0 0 220 160">
  <defs>
    <radialGradient id="g" cx="30%" cy="35%" r="80%">
      <stop offset="0" stop-color="#7cffc7"/>
      <stop offset="1" stop-color="#1a8a55"/>
    </radialGradient>
    <filter id="shadow" x="-40%" y="-40%" width="180%" height="180%">
      <feDropShadow dx="0" dy="4" stdDeviation="3" flood-color="#000" flood-opacity="0.35"/>
    </filter>
  </defs>
  <g filter="url(#shadow)" stroke="#0b3a22" stroke-width="6" stroke-linejoin="round" stroke-linecap="round">
    <ellipse cx="108" cy="84" rx="64" ry="44" fill="url(#g)"/>
    <circle cx="150" cy="70" r="30" fill="url(#g)"/>
    <circle cx="144" cy="62" r="6" fill="#111"/>
    <circle cx="142" cy="60" r="2" fill="#fff"/>
    <!-- beak -->
    <path d="M176 76l28 10-28 12z" fill="#ffd24d" stroke="#9a6b12" stroke-width="6"/>
    <!-- wing -->
    <path d="M70 80c-20-30 10-60 46-48 20 6 34 26 20 48-10 16-36 24-66 0z"
          fill="#21b86f" opacity="0.9"/>
    <!-- feet -->
    <path d="M90 122c-6 14-20 18-34 14" fill="none" stroke="#2a2a2a" stroke-width="10"/>
    <path d="M124 122c-6 14-20 18-34 14" fill="none" stroke="#2a2a2a" stroke-width="10"/>
  </g>
</svg>
